{"title":"Dreamum Wakeupum - Aiyyaa Movie - HD_HQ 720p Official Video Song","uid":7708275,"size":58402359,"categoryP":"video","categoryS":"music_videos","magnet":"?xt=urn:btih:3d20a8b1ba6d1d6de477638cc4bd5a2a0a0c958b&amp;dn=Dreamum+Wakeupum+-+Aiyyaa+Movie+-+HD_HQ+720p+Official+Video+Song&amp;tr=udp%3A%2F%2Ftracker.openbittorrent.com%3A80&amp;tr=udp%3A%2F%2Fopen.demonii.com%3A1337&amp;tr=udp%3A%2F%2Ftracker.coppersurfer.tk%3A6969&amp;tr=udp%3A%2F%2Fexodus.desync.com%3A6969","seeders":1,"leechers":0,"uploader":"zjrathod","files":1,"time":1349742804,"description":"Format : Windows Media\nFile size : 55.7 MiB\nDuration : 2mn 22s\nOverall bit rate mode : Constant\nOverall bit rate : 3 280 Kbps\nMaximum Overall bit rate : 3 273 Kbps\n\nVideo\nID : 2\nFormat : VC-1\nFormat profile : AP@L2\nCodec ID : WVC1\nDuration : 2mn 22s\nBit rate mode : Constant\nBit rate : 2 997 Kbps\nWidth : 1 280 pixels\nHeight : 720 pixels\nDisplay aspect ratio : 16:9\nFrame rate : 25.000 fps\nChroma subsampling : 4:2:0\nBit depth : 8 bits\nScan type : Progressive\nCompression mode : Lossy\nBits/(Pixel*Frame) : 0.130\nStream size : 50.9 MiB (91%)\n\nAudio\nID : 1\nFormat : WMA\nCodec ID : 162\nCodec ID/Info : Windows Media Audio\nDescription of the codec : Windows Media Audio 10 Professional - 256 kbps, 44 kHz, 2 channel 16 bit 1-pass CBR\nDuration : 2mn 22s\nBit rate mode : Constant\nBit rate : 256 Kbps\nChannel(s) : 2 channels\nSampling rate : 44.1 KHz\nBit depth : 16 bits\nStream size : 4.35 MiB (8%)\nLanguage : Hinglish ","torrent":{"xt":"urn:btih:3d20a8b1ba6d1d6de477638cc4bd5a2a0a0c958b","amp;dn":"Dreamum+Wakeupum+-+Aiyyaa+Movie+-+HD_HQ+720p+Official+Video+Song","amp;tr":["udp%3A%2F%2Ftracker.openbittorrent.com%3A80","udp%3A%2F%2Fopen.demonii.com%3A1337","udp%3A%2F%2Ftracker.coppersurfer.tk%3A6969","udp%3A%2F%2Fexodus.desync.com%3A6969"],"infoHash":"3d20a8b1ba6d1d6de477638cc4bd5a2a0a0c958b","infoHashBuffer":{"type":"Buffer","data":[61,32,168,177,186,109,29,109,228,119,99,140,196,189,90,42,10,12,149,139]},"announce":[],"urlList":[]}}